<?xml version="1.0" encoding="utf-8"?>
<!-- Generator: Adobe Illustrator 16.0.0, SVG Export Plug-In . SVG Version: 6.00 Build 0)  -->
<!DOCTYPE svg PUBLIC "-//W3C//DTD SVG 1.1//EN" "http://www.w3.org/Graphics/SVG/1.1/DTD/svg11.dtd">
<svg version="1.1" id="Capa_1" xmlns="http://www.w3.org/2000/svg" xmlns:xlink="http://www.w3.org/1999/xlink" x="0px" y="0px"
	 width="124.464px" height="150px" viewBox="0 0 124.464 150" enable-background="new 0 0 124.464 150" xml:space="preserve">
<g>
	<path fill="#FFFFFF" d="M66.507,73.787h29.237l28.317,55.511H70.57v-10.437l34.724-0.045l-5.184-11.408l-13.691-0.063
		c0,0-6.293-4.019-6.205-10.571l15.072,0.218l-6.683-12.67L66.508,84.19L66.507,73.787L66.507,73.787z"/>
	<circle fill="#B41627" cx="62.779" cy="124.211" r="4.98"/>
	<line fill="none" stroke="#B41627" stroke-width="3" stroke-miterlimit="10" x1="68.824" y1="31.915" x2="24.783" y2="122.076"/>
	<polygon fill="#FFFFFF" points="0.489,129.298 62.34,6.657 89.606,59.023 78.103,59.088 62.34,28.679 18.299,118.838 
		53.91,118.838 53.91,129.298 	"/>
	<g>
		<path fill="#FFFFFF" d="M4.671,134.735h0.188c0.444,0,0.804,0.356,1.076,1.063c2.058,4.044,3.117,6.145,3.178,6.304v0.327
			c0,0.364-0.241,0.654-0.723,0.874c-0.104,0.022-0.188,0.037-0.253,0.037H7.981c-0.449,0-0.812-0.365-1.089-1.101
			c-1.417-2.791-2.134-4.194-2.153-4.213c-1.585,3.178-2.421,4.831-2.509,4.957c-0.236,0.236-0.48,0.354-0.735,0.354H1.345
			c-0.365,0-0.666-0.219-0.902-0.657c-0.036-0.129-0.055-0.23-0.055-0.307v-0.134c0-0.157,0.203-0.62,0.614-1.383l2.899-5.714
			C4.13,134.873,4.387,134.735,4.671,134.735z"/>
		<path fill="#FFFFFF" d="M10.725,134.735h0.156c0.309,0,0.623,0.181,0.944,0.541c2.021,1.985,3.503,3.431,4.445,4.338v-3.727
			c0-0.535,0.248-0.901,0.741-1.103c0.108-0.032,0.206-0.05,0.295-0.05h0.15c0.37,0,0.674,0.216,0.915,0.644
			c0.044,0.134,0.066,0.234,0.066,0.306v6.726c0,0.332-0.206,0.613-0.619,0.847c-0.115,0.056-0.225,0.084-0.326,0.084h-0.239
			c-0.31,0-0.693-0.267-1.15-0.799l-4.224-4.115v3.883c0,0.467-0.271,0.805-0.812,1.012c-0.061,0.013-0.112,0.02-0.151,0.02h-0.241
			c-0.364,0-0.664-0.22-0.896-0.658c-0.046-0.115-0.067-0.219-0.067-0.307v-6.636c0-0.437,0.256-0.758,0.77-0.969
			C10.572,134.748,10.652,134.735,10.725,134.735z"/>
		<path fill="#FFFFFF" d="M20.05,134.735h3.471c1.015,0,1.982,0.402,2.9,1.2c0.55,0.568,0.904,1.089,1.065,1.56
			c0.185,0.509,0.277,0.941,0.277,1.304v0.46c0,0.971-0.425,1.916-1.27,2.826c-0.636,0.562-1.248,0.922-1.842,1.085
			c-0.438,0.112-0.786,0.168-1.048,0.168h-3.604c-0.364,0-0.663-0.219-0.896-0.657c-0.044-0.115-0.066-0.219-0.066-0.307v-6.636
			c0-0.437,0.256-0.758,0.77-0.969C19.897,134.748,19.977,134.735,20.05,134.735z M21.205,136.873v4.331h1.919
			c0.746,0,1.399-0.281,1.961-0.845c0.341-0.408,0.512-0.827,0.512-1.256v-0.15c0-0.638-0.354-1.2-1.064-1.679
			c-0.444-0.266-0.954-0.401-1.527-0.401H21.205L21.205,136.873z"/>
		<path fill="#FFFFFF" d="M29.375,134.735h5.138c0.734,0,1.411,0.346,2.027,1.034c0.366,0.523,0.549,1.015,0.549,1.475v0.354
			c0,0.698-0.35,1.354-1.048,1.967c-0.426,0.272-0.764,0.431-1.017,0.474v0.014c0.891,0.787,1.476,1.334,1.758,1.645
			c0.124,0.206,0.187,0.404,0.187,0.594c0,0.451-0.253,0.79-0.759,1.014c-0.101,0.022-0.174,0.036-0.222,0.036h-0.241
			c-0.281,0-0.652-0.247-1.113-0.744c-0.158-0.131-1.07-0.961-2.73-2.489h-1.372v2.202c0,0.467-0.271,0.805-0.813,1.012
			c-0.06,0.013-0.11,0.02-0.15,0.02h-0.241c-0.365,0-0.664-0.22-0.896-0.658c-0.045-0.115-0.065-0.219-0.065-0.307v-6.636
			c0-0.437,0.256-0.758,0.77-0.969C29.223,134.748,29.303,134.735,29.375,134.735z M30.531,136.873v1.115h4.393v-1.115H30.531z"/>
		<path fill="#FFFFFF" d="M38.701,134.735h6.733c0.368,0,0.674,0.216,0.915,0.644c0.043,0.134,0.065,0.234,0.065,0.306v0.241
			c0,0.342-0.216,0.632-0.649,0.862c-0.142,0.057-0.273,0.085-0.397,0.085h-5.513v1.099h4.261c0.542,0,0.907,0.213,1.096,0.642
			c0.055,0.123,0.084,0.238,0.084,0.34v0.15c0,0.438-0.257,0.759-0.771,0.969c-0.084,0.023-0.164,0.036-0.241,0.036h-4.429v1.097
			h5.393c0.632,0,1.021,0.307,1.165,0.92v0.288c0,0.331-0.205,0.612-0.618,0.846c-0.116,0.056-0.226,0.084-0.326,0.084h-6.816
			c-0.365,0-0.663-0.22-0.896-0.659c-0.044-0.116-0.066-0.218-0.066-0.307v-6.636c0-0.437,0.256-0.758,0.77-0.967
			C38.547,134.748,38.629,134.735,38.701,134.735z"/>
		<path fill="#FFFFFF" d="M50.012,134.735h4.734c0.441,0,0.766,0.24,0.975,0.715c0.012,0.063,0.019,0.109,0.019,0.15v0.325
			c0,0.334-0.212,0.623-0.639,0.862c-0.168,0.057-0.304,0.085-0.408,0.085h-5.499v1.079h3.272c1.328,0,2.316,0.419,2.966,1.255
			c0.204,0.314,0.307,0.581,0.307,0.797v1.285c0,0.5-0.338,0.991-1.012,1.475c-0.646,0.383-1.28,0.577-1.9,0.577h-4.868
			c-0.328,0-0.614-0.187-0.86-0.559c-0.057-0.12-0.084-0.229-0.084-0.323v-0.235c0-0.436,0.257-0.758,0.771-0.967
			c0.116-0.036,0.248-0.055,0.396-0.055h5.396v-1.08h-3.459c-0.963,0-1.791-0.3-2.485-0.9c-0.413-0.412-0.619-0.829-0.619-1.252
			v-1.086c0-0.704,0.485-1.309,1.457-1.813C49.038,134.849,49.55,134.735,50.012,134.735z"/>
		<path fill="#FFFFFF" d="M60.409,134.735h6.732c0.37,0,0.674,0.216,0.916,0.644c0.045,0.134,0.066,0.234,0.066,0.306v0.241
			c0,0.342-0.217,0.632-0.649,0.862c-0.144,0.057-0.275,0.085-0.397,0.085h-5.513v1.099h4.261c0.542,0,0.906,0.213,1.096,0.642
			c0.057,0.123,0.084,0.238,0.084,0.34v0.15c0,0.438-0.257,0.759-0.771,0.969c-0.084,0.023-0.164,0.036-0.241,0.036h-4.429v1.097
			h5.391c0.635,0,1.022,0.307,1.168,0.92v0.288c0,0.331-0.208,0.612-0.62,0.846c-0.115,0.056-0.225,0.084-0.324,0.084H60.36
			c-0.365,0-0.663-0.22-0.896-0.659c-0.044-0.116-0.066-0.218-0.066-0.307v-6.636c0-0.437,0.256-0.758,0.771-0.967
			C60.257,134.748,60.336,134.735,60.409,134.735z"/>
		<path fill="#FFFFFF" d="M71.718,134.735h4.736c0.441,0,0.768,0.24,0.974,0.715c0.014,0.063,0.02,0.109,0.02,0.15v0.325
			c0,0.334-0.213,0.623-0.638,0.862c-0.169,0.057-0.305,0.085-0.41,0.085h-5.498v1.079h3.271c1.327,0,2.316,0.419,2.967,1.255
			c0.204,0.314,0.306,0.581,0.306,0.797v1.285c0,0.5-0.338,0.991-1.012,1.475c-0.646,0.383-1.278,0.577-1.9,0.577h-4.867
			c-0.329,0-0.616-0.187-0.859-0.559c-0.06-0.12-0.086-0.229-0.086-0.323v-0.235c0-0.436,0.257-0.758,0.771-0.967
			c0.116-0.036,0.246-0.055,0.397-0.055h5.398v-1.08h-3.461c-0.963,0-1.79-0.3-2.483-0.9c-0.414-0.412-0.621-0.829-0.621-1.252
			v-1.086c0-0.704,0.486-1.309,1.457-1.813C70.745,134.849,71.259,134.735,71.718,134.735z"/>
		<path fill="#FFFFFF" d="M79.06,134.735h6.731c0.371,0,0.674,0.216,0.917,0.644c0.043,0.134,0.065,0.234,0.065,0.306v0.241
			c0,0.342-0.215,0.632-0.648,0.862c-0.142,0.057-0.272,0.085-0.396,0.085h-2.233v5.466c0,0.444-0.262,0.771-0.789,0.982
			l-0.173,0.02h-0.242c-0.347,0-0.641-0.213-0.877-0.643c-0.058-0.14-0.085-0.269-0.085-0.389v-5.436h-2.179
			c-0.51,0-0.864-0.253-1.064-0.761c-0.023-0.105-0.036-0.18-0.036-0.225v-0.148c0-0.437,0.258-0.758,0.771-0.969
			C78.908,134.748,78.988,134.735,79.06,134.735z"/>
		<path fill="#FFFFFF" d="M88.386,134.735h6.733c0.368,0,0.674,0.216,0.914,0.644c0.045,0.134,0.066,0.234,0.066,0.306v0.241
			c0,0.342-0.216,0.632-0.65,0.862c-0.14,0.057-0.272,0.085-0.396,0.085h-5.511v1.099h4.261c0.54,0,0.907,0.213,1.094,0.642
			c0.058,0.123,0.085,0.238,0.085,0.34v0.15c0,0.438-0.258,0.759-0.771,0.969c-0.083,0.023-0.163,0.036-0.24,0.036h-4.428v1.097
			h5.391c0.632,0,1.021,0.307,1.167,0.92v0.288c0,0.331-0.206,0.612-0.619,0.846c-0.116,0.056-0.227,0.084-0.326,0.084h-6.816
			c-0.366,0-0.664-0.22-0.896-0.659c-0.044-0.116-0.068-0.218-0.068-0.307v-6.636c0-0.437,0.257-0.758,0.771-0.967
			C88.234,134.748,88.313,134.735,88.386,134.735z"/>
		<path fill="#FFFFFF" d="M97.657,134.735h0.169c0.452,0,0.818,0.362,1.095,1.081c0.017,0.003,0.726,1.415,2.13,4.229
			c0.021-0.021,0.853-1.65,2.498-4.891c0.229-0.279,0.477-0.422,0.744-0.422h0.177c0.351,0,0.641,0.2,0.864,0.595
			c0.062,0.113,0.092,0.219,0.092,0.319v0.251c0,0.116-0.332,0.806-0.994,2.064c-1.636,3.256-2.484,4.923-2.545,5.004
			c-0.229,0.248-0.469,0.371-0.715,0.371h-0.188c-0.456,0-0.81-0.325-1.059-0.977c-2.125-4.164-3.188-6.278-3.188-6.342
			c-0.022-0.044-0.035-0.104-0.035-0.187V135.7c0-0.447,0.272-0.763,0.817-0.946C97.563,134.742,97.61,134.735,97.657,134.735z"/>
		<path fill="#FFFFFF" d="M107.038,134.735h6.731c0.37,0,0.675,0.216,0.914,0.644c0.046,0.134,0.068,0.234,0.068,0.306v0.241
			c0,0.342-0.218,0.632-0.65,0.862c-0.14,0.057-0.272,0.085-0.396,0.085h-5.513v1.099h4.262c0.541,0,0.906,0.213,1.097,0.642
			c0.054,0.123,0.082,0.238,0.082,0.34v0.15c0,0.438-0.257,0.759-0.771,0.969c-0.084,0.023-0.164,0.036-0.24,0.036h-4.43v1.097
			h5.391c0.635,0,1.023,0.307,1.168,0.92v0.288c0,0.331-0.206,0.612-0.62,0.846c-0.115,0.056-0.224,0.084-0.325,0.084h-6.817
			c-0.364,0-0.663-0.22-0.896-0.659c-0.044-0.116-0.067-0.218-0.067-0.307v-6.636c0-0.437,0.258-0.758,0.771-0.967
			C106.884,134.748,106.965,134.735,107.038,134.735z"/>
		<path fill="#FFFFFF" d="M116.363,134.735h6.732c0.369,0,0.674,0.216,0.914,0.644c0.044,0.134,0.067,0.234,0.067,0.306v0.241
			c0,0.288-0.255,0.646-0.77,1.08c-0.343,0.351-1.739,1.745-4.193,4.182h-0.02v0.017h3.778c0.613,0,1.003,0.261,1.166,0.78
			c0.025,0.044,0.037,0.106,0.037,0.186v0.241c0,0.333-0.206,0.612-0.618,0.846c-0.119,0.057-0.227,0.084-0.327,0.084h-6.816
			c-0.363,0-0.663-0.22-0.896-0.658c-0.045-0.115-0.066-0.219-0.066-0.307v-0.186c0-0.333,0.255-0.709,0.77-1.135
			c0.963-0.969,2.36-2.364,4.194-4.182h-3.863c-0.509,0-0.864-0.253-1.065-0.761c-0.023-0.105-0.035-0.18-0.035-0.225v-0.148
			c0-0.436,0.256-0.758,0.771-0.969C116.209,134.748,116.29,134.735,116.363,134.735z"/>
	</g>
	<path fill="#FFFFFF" d="M93.236,132.481l-1.536,1.696l2.48-1.076C94.18,133.102,94.228,132.507,93.236,132.481z"/>
</g>
</svg>
